<?xml version="1.0" encoding="UTF-8"?>
<svg width="208" height="22" data-name="Layer 1" version="1.1" viewBox="0 0 208 22" xmlns="http://www.w3.org/2000/svg" xmlns:cc="http://creativecommons.org/ns#" xmlns:dc="http://purl.org/dc/elements/1.1/" xmlns:rdf="http://www.w3.org/1999/02/22-rdf-syntax-ns#"><metadata><rdf:RDF><cc:Work rdf:about=""><dc:format>image/svg+xml</dc:format><dc:type rdf:resource="http://purl.org/dc/dcmitype/StillImage"/><dc:title>Calculator.net_110917</dc:title></cc:Work></rdf:RDF></metadata><defs><style>.cls-1{fill:#ffffff;}.cls-2{fill:#ccff99;}</style></defs><title>Calculator.net_110917</title><g transform="matrix(2.0833 0 0 2.082 -2.3542 -19.565)" fill="#fff"><path class="cls-1" d="m10.2 19.8v-1.8h-4.02a1.9 1.9 0 0 1-2-1.64 7.39 7.39 0 0 1 0.09-3.47 2.06 2.06 0 0 1 2.17-1.75h3.76v-1.74h-4.41a3.83 3.83 0 0 0-3.85 2.85c-0.15 0.51-0.22 1-0.33 1.56v1.74c0 0.25 0.09 0.5 0.13 0.75a4 4 0 0 0 3.83 3.47h4.63z"/><path class="cls-1" d="m18.71 14.5a2.24 2.24 0 0 0-1.52-2.12 3.54 3.54 0 0 0-1.19-0.23h-4.57v1.6h3.92a1.13 1.13 0 0 1 1.29 1.34q0 1.22 0 2.44a0.59 0.59 0 0 1-0.67 0.69h-2.27a0.6 0.6 0 0 1-0.7-0.75 0.66 0.66 0 0 1 0.62-0.73 3.12 3.12 0 0 1 0.56-0.05h2v-1.52c-0.65 0-2.32-0.06-3.45 0.07a1.88 1.88 0 0 0-1.82 1.92 2 2 0 0 0 2 2.6 28.12 28.12 0 0 0 3.94 0 1.88 1.88 0 0 0 1.92-2.06c0-1.06-0.01-2.13-0.06-3.2z"/><path class="cls-1" d="m26.69 13.89a6.34 6.34 0 0 1 1-0.09h2.25v-1.68h-3.59a3 3 0 0 0-2.62 1.6 4.38 4.38 0 0 0-0.2 4 3 3 0 0 0 2.64 2c1.19 0.09 2.38 0.05 3.57 0.06h0.18v-1.63h-2.75a1.69 1.69 0 0 1-1.8-1.45 5.3 5.3 0 0 1 0-1.52 1.44 1.44 0 0 1 1.32-1.29z"/><path class="cls-1" d="m35.85 12.14v6h-1.56c-1.15 0-1.4-0.25-1.4-1.39q0-2.1 0-4.21v-0.41h-2v5.17a2.28 2.28 0 0 0 2.38 2.5c1.24 0.08 2.49 0 3.74 0.06h0.87v-7.72h-2z"/><path class="cls-1" d="m54.51 18.24a1 1 0 0 1-1-1 3.75 3.75 0 0 1 0-0.43q0-1.39 0-2.77v-0.35h2.1v-1.58h-2.16v-2.69h-2.06v0.38q0 1.77 0 3.54v4.24a2.09 2.09 0 0 0 2.31 2.24h1.86v-1.57c-0.36 0-0.71 0.02-1.05-0.01z"/><path class="cls-1" d="m48.5 12.29a3.46 3.46 0 0 0-0.92-0.15h-4.58v1.6h3.92a1.13 1.13 0 0 1 1.29 1.31v2.47a0.59 0.59 0 0 1-0.67 0.69h-2.3a0.56 0.56 0 0 1-0.64-0.58 0.64 0.64 0 0 1 0.56-0.81 4.56 4.56 0 0 1 0.84-0.05h1.8v-1.58c-0.8 0-2.26-0.05-3.37 0a1.77 1.77 0 0 0-1.7 1.14 4.19 4.19 0 0 0-0.24 1.67 1.78 1.78 0 0 0 1.77 1.75 34.06 34.06 0 0 0 4 0 1.86 1.86 0 0 0 2-2 27 27 0 0 0 0-3.37 2.24 2.24 0 0 0-1.76-2.09z"/><path class="cls-1" d="m20.13 19.78h2.09v-10.37h-2.09z"/><path class="cls-1" d="m39.33 19.79h2.08v-10.38h-2.08z"/><path class="cls-1" d="m71.21 12.15c-1.34 0-2.67-0.08-4 0a2.39 2.39 0 0 0-2.41 2.55c-0.05 1.63 0 3.27 0 4.91v0.16h2.1v-6.07h4.31z"/><path class="cls-1" d="m61.49 12.19a4.93 4.93 0 0 0-2.18-0.19 3.62 3.62 0 0 0-3.07 2.15 4.6 4.6 0 0 0-0.32 2.41 3.61 3.61 0 0 0 2.52 3.14c0.19 0.06 0.34 0.11 0.53 0.15a4.45 4.45 0 0 0 2 0 2.85 2.85 0 0 0 0.33-0.07 3.47 3.47 0 0 0 2.63-2.66 5.63 5.63 0 0 0 0.07-1.9 3.47 3.47 0 0 0-2.51-3.03zm0.37 4.41a1.84 1.84 0 0 1-1.86 1.68 1.77 1.77 0 0 1-1.91-1.62 4.25 4.25 0 0 1 0-1.45 1.76 1.76 0 0 1 2-1.54 1.83 1.83 0 0 1 1.79 1.73v0.61c0 0.19 0.02 0.4-0.02 0.59z"/></g><g transform="matrix(2.0996 0 0 2.1134 -3.605 -20.098)" fill="#cf9"><path class="cls-2" d="m91.63 12.63a4.13 4.13 0 0 0-0.89-0.11h-4a2 2 0 0 0-2.06 1.89 16.29 16.29 0 0 0 0 3.16 2.4 2.4 0 0 0 2 2.1l0.56 0.12a3.37 3.37 0 0 0 0.65 0.06h4.75v-1.74h-3.88a4.94 4.94 0 0 1-0.89-0.11 1.06 1.06 0 0 1-1-1.11v-2a0.55 0.55 0 0 1 0.55-0.64c0.9-0.05 1.8-0.06 2.7-0.05a0.54 0.54 0 0 1 0.52 0.55 0.57 0.57 0 0 1-0.5 0.58 1.79 1.79 0 0 1-0.4 0h-2.35v1.64a23.3 23.3 0 0 0 4.19-0.16 1.79 1.79 0 0 0 1.42-1.41 4.41 4.41 0 0 0 0-1.29 1.67 1.67 0 0 0-1.37-1.48z"/><path class="cls-2" d="m97.2 18.15a1 1 0 0 1-1.1-1.1v-2.84h2.27v-1.7h-2.3v-3h-2.27v7.47a5.54 5.54 0 0 0 0.07 0.93 2.09 2.09 0 0 0 1.53 1.79 3.33 3.33 0 0 0 1 0.14h2v-1.69c-0.4 0-0.8 0.03-1.2 0z"/><path class="cls-2" d="m70.3 19.89h2.07v-2h-2.07z"/><path class="cls-2" d="m83.59 19.76v-4.68a2.31 2.31 0 0 0-1.88-2.39 4.11 4.11 0 0 0-1-0.14h-4.86v7.37h2.25v-5.5h2a1 1 0 0 1 1.21 1.22v4.26h2.29s-0.01-0.1-0.01-0.14z"/></g></svg>
