<?xml version="1.0" encoding="UTF-8"?>
<svg width="300" height="38" enable-background="new 0 0 24 24" version="1.1" viewBox="0 0 300 38" xml:space="preserve" xmlns="http://www.w3.org/2000/svg"><g id="icon" transform="translate(0,14)"><g transform="translate(-15.71 -1.5887)" stroke-width="1.7273"><circle cx="40.71" cy="6.5887" r="19" fill="#369"/><path d="m42.364 17.643h-4.5902v-11.055h-2.0727v-3.8h2.0727v-2.27c0-3.092 1.3281-4.9846 4.9701-4.9846h2.9754v3.8h-1.8383c-1.4181 0-1.5114 0.54927-1.5114 1.5378l-6e-3 1.9168h3.4335l-0.40181 3.8h-3.1305v11.055z" fill="#fff"/></g><g transform="translate(-12.578 -2.847)" stroke-width="1.7273"><circle cx="162.58" cy="7.847" r="19" fill="#369"/><path d="m149.79 10.931c1.6877 1.5608 6.0216 3.0379 9.5482-0.41904-0.63408 0.0988-1.1637-0.02125-1.5656-0.41904-0.38156-0.37776-0.40246-0.76881-0.19847-1.1246 0.16599-0.28949 0.51594-0.49331 0.86001-0.70559-0.62406 0.11607-1.1562 0.055791-1.6318-0.18741-0.6384-0.32645-1.2594-0.67001-1.4333-1.3782 0.39053-0.41092 0.8246-0.77796 1.7642-0.63944-0.88384-0.29519-1.6758-0.6802-2.2494-1.2569-0.55843-0.56171-0.61612-0.92685-0.70559-1.3673 0.48778-0.18067 0.99715-0.27464 1.5437-0.22057-1.2359-0.63184-1.7604-1.5008-2.0508-2.4477-0.0874-0.28638-0.10364-0.5586-0.0665-0.8379 5.0055 1.8895 7.3497 3.2471 8.6441 4.5206 0.58227-1.5494 1.9397-5.0583 3.9693-6.2627 9e-3 0.19104-0.0665 0.39693-0.22058 0.6175 0.60075-0.33475 1.0699-0.87072 1.8966-0.86018-0.0952 0.39105-0.36877 0.70421-0.90405 0.90423 0.53994-0.20693 1.087-0.38225 1.6539-0.48519 0.52544-0.095173 0.51784 0.31937 0.22057 0.52924-0.60351 0.42595-1.2448 0.4788-1.8743 0.68365 1.9299 0.047846 3.5083 0.96192 4.741 2.9548 0.4097 0.66224 0.68469 1.3245 0.74963 2.0508 0.82322 0.23094 1.6425 0.27826 2.4698 0.13231 0.22662-0.040591 0.43786-0.082736 0.63944-0.17635-0.32162 0.4826-0.69299 0.87901-1.2127 1.0585-0.49677 0.17152-0.99457 0.33872-1.5437 0.35288 0.89352 0.3382 1.8784 0.35703 2.8887 0.28673-1.236 1.1896-2.1821 1.1609-3.1314 1.1467-0.41627 1.7578-1.2675 3.5109-3.065 5.1158-2.3582 2.1057-4.8968 3.11-7.5195 3.3298-2.459 0.20606-4.8364 0.17791-7.4314-1.0365-1.924-0.90025-3.5368-2.1394-4.7852-3.8589z" fill="#fff"/></g><g transform="translate(27.914 -1.6424)" stroke-width="1.7275"><circle cx="247.09" cy="6.6424" r="19" fill="#369"/><path d="m259.13 6.6339c-0.0539-1.4537-1.2742-2.5889-2.7324-2.5395-0.6461 0.022458-1.2608 0.28712-1.7274 0.73127-2.0549-1.3998-4.4688-2.167-6.9499-2.2209l1.1711-5.6307 3.8631 0.81212c0.10762 0.99161 0.99609 1.7094 1.9875 1.6018 0.99161-0.10763 1.7094-0.9961 1.6018-1.9875-0.10762-0.99144-0.99609-1.7094-1.9875-1.6018-0.56974 0.058391-1.0813 0.39042-1.3639 0.88381l-4.4239-0.88381c-0.30059-0.067374-0.60118 0.1211-0.66855 0.42618v0.00898l-1.3326 6.2634c-2.5125 0.040424-4.9579 0.81212-7.0396 2.2209-1.0588-0.9961-2.728-0.94669-3.7239 0.11661-0.99609 1.0588-0.94669 2.728 0.11661 3.7239 0.20644 0.19297 0.44415 0.35898 0.70899 0.47559-0.018 0.26466-0.018 0.52949 0 0.79415 0 4.0424 4.711 7.3313 10.521 7.3313 5.8102 0 10.521-3.2842 10.521-7.3313 0.018-0.26466 0.018-0.52949 0-0.79415 0.90626-0.45313 1.476-1.3864 1.458-2.4002zm-18.05 1.808c0-0.9961 0.81212-1.8082 1.8082-1.8082s1.8082 0.81212 1.8082 1.8082c0 0.9961-0.81212 1.8082-1.8082 1.8082-1.0006-9e-3 -1.8082-0.81212-1.8082-1.8082zm10.485 4.9624c-1.2832 0.96466-2.8536 1.4582-4.4598 1.3908-1.6063 0.06737-3.1766-0.42618-4.4598-1.3908-0.17051-0.20644-0.13907-0.51602 0.0674-0.68652 0.17949-0.14805 0.43517-0.14805 0.61915 0 1.0858 0.79415 2.4094 1.1979 3.7553 1.1352 1.3459 0.07187 2.6741-0.31407 3.7733-1.0992 0.19746-0.19297 0.52051-0.18847 0.7133 9e-3 0.19279 0.19746 0.18847 0.52051-9e-3 0.71347v-0.07187zm-0.32305-3.0914c-0.9961 0-1.8082-0.81212-1.8082-1.8082 0-0.9961 0.81212-1.8082 1.8082-1.8082s1.8082 0.81212 1.8082 1.8082c0.0404 0.9961-0.73576 1.835-1.7319 1.8754h-0.0897z" fill="#fff"/></g></g></svg>
